<svg xmlns="http://www.w3.org/2000/svg" fill="none" viewBox="0 0 25 25"><path fill="#999" d="M17.178 11.784c-.844 0-1.534.665-1.534 1.509 0 .843.69 1.533 1.508 1.533a1.51 1.51 0 0 0 1.508-1.508 1.465 1.465 0 0 0-1.482-1.534Zm0 2.275a.753.753 0 0 1-.767-.766c0-.435.332-.767.767-.767a.77.77 0 0 1 .767.767.769.769 0 0 1-.767.767ZM7.796 9.586c-2.019-.026-3.783 1.662-3.732 3.809.026 1.994 1.688 3.706 3.784 3.68 2.045-.025 3.706-1.686 3.706-3.731a3.747 3.747 0 0 0-3.758-3.758Zm.052 6.033c-1.355.05-2.454-1.023-2.454-2.326 0-1.33 1.099-2.352 2.326-2.327a2.318 2.318 0 0 1 2.326 2.327c.026 1.303-.997 2.275-2.198 2.326Z"/><path fill="#999" d="M12.5 0C5.598 0 0 5.598 0 12.5S5.598 25 12.5 25 25 19.402 25 12.5 19.402 0 12.5 0Zm7.183 17.357a4.6 4.6 0 0 1-2.505.716c-.384 0-.767-.052-1.125-.154a4.808 4.808 0 0 1-2.3-1.355c-.077-.076-.154-.178-.256-.28-.332.51-.665.996-.997 1.507-.332-.51-.665-.997-.997-1.482-.026 0-.026.025-.026.025l-.025.026c-.767.92-1.738 1.457-2.914 1.662a4.526 4.526 0 0 1-1.943-.103 4.753 4.753 0 0 1-2.3-1.431c-.614-.69-.972-1.483-1.125-2.403-.154-.844.025-1.662.076-1.866.154-.588.384-1.1.742-1.585.025-.026.025-.102.025-.128-.128-.511-.383-.971-.664-1.431-.077-.103-.154-.205-.23-.333v-.025h2.888c.051 0 .077-.026.128-.051a9.543 9.543 0 0 1 2.122-1.023 11.853 11.853 0 0 1 1.636-.434 11.443 11.443 0 0 1 1.636-.205c1.329-.102 2.402.026 3.118.128.537.077 1.048.204 1.56.358.894.28 1.712.664 2.505 1.15a.482.482 0 0 0 .204.051H21.906v.026c-.05.076-.076.128-.127.204-.307.486-.588.972-.741 1.534-.026.051-.026.102.025.179.818 1.176 1.074 2.48.742 3.885-.358 1.202-1.048 2.148-2.122 2.838Z"/><path fill="#999" d="M7.72 11.784c-.818 0-1.508.69-1.508 1.509 0 .843.69 1.508 1.533 1.508.818 0 1.509-.69 1.509-1.534 0-.818-.665-1.483-1.534-1.483Zm.025 2.301a.78.78 0 0 1-.792-.792c0-.435.332-.767.767-.767.434 0 .767.332.792.767.026.434-.332.767-.767.792ZM17.101 9.612a3.76 3.76 0 0 0-3.68 3.732c0 2.07 1.686 3.783 3.757 3.757a3.748 3.748 0 0 0 3.758-3.757A3.727 3.727 0 0 0 17.1 9.612Zm.18 6.007a2.327 2.327 0 0 1-2.43-2.326c0-1.33 1.1-2.352 2.327-2.327a2.318 2.318 0 0 1 2.326 2.327 2.333 2.333 0 0 1-2.224 2.326Z"/><path fill="#999" d="M13.983 9.867c.818-.767 1.814-1.15 2.94-1.252-1.33-.588-2.736-.844-4.193-.87-1.636-.025-3.246.205-4.755.844 1.15.077 2.148.46 2.991 1.227.844.767 1.33 1.738 1.508 2.863.205-1.1.69-2.045 1.509-2.812Z"/></svg>